<?xml version="1.0" standalone="no"?>
<!DOCTYPE svg PUBLIC "-//W3C//DTD SVG 20010904//EN"
 "http://www.w3.org/TR/2001/REC-SVG-20010904/DTD/svg10.dtd">
<svg version="1.0" xmlns="http://www.w3.org/2000/svg"
 width="260.000000pt" height="260.000000pt" viewBox="0 0 260.000000 260.000000"
 preserveAspectRatio="xMidYMid meet">
<metadata>
Created by potrace 1.11, written by Peter Selinger 2001-2013
</metadata>
<g transform="translate(0.000000,260.000000) scale(0.100000,-0.100000)"
fill="#000000" stroke="none">
<path d="M0 1300 l0 -1300 1300 0 1300 0 0 1300 0 1300 -1300 0 -1300 0 0
-1300z m2005 901 c108 -49 192 -216 225 -446 5 -38 10 -91 10 -117 l0 -48 -94
0 -93 0 -6 78 c-9 103 -23 150 -57 184 -20 20 -38 28 -63 28 -52 0 -66 -8 -88
-52 -33 -65 -49 -162 -56 -350 l-6 -178 -99 0 -98 0 0 38 c1 96 21 342 35 424
42 242 128 404 236 447 39 16 111 12 154 -8z m-1369 -16 c3 -8 34 -210 68
-450 l62 -435 -76 0 -76 0 -18 131 c-29 201 -34 207 -28 32 l5 -163 -91 0 -92
0 0 450 0 450 120 0 c97 0 122 -3 126 -15z m594 -435 l0 -450 -92 0 -91 0 5
163 c6 175 1 169 -28 -32 l-18 -131 -73 0 c-69 0 -73 1 -73 23 0 35 119 857
125 867 4 6 60 10 126 10 l119 0 0 -450z"/>
</g>
</svg>
