<?xml version="1.0" standalone="no"?>
<!DOCTYPE svg PUBLIC "-//W3C//DTD SVG 20010904//EN"
 "http://www.w3.org/TR/2001/REC-SVG-20010904/DTD/svg10.dtd">
<svg version="1.0" xmlns="http://www.w3.org/2000/svg"
 width="260.000000pt" height="260.000000pt" viewBox="0 0 260.000000 260.000000"
 preserveAspectRatio="xMidYMid meet">
<metadata>
Created by potrace 1.11, written by Peter Selinger 2001-2013
</metadata>
<g transform="translate(0.000000,260.000000) scale(0.100000,-0.100000)"
fill="#000000" stroke="none">
<path d="M0 1300 l0 -1300 1300 0 1300 0 0 1300 0 1300 -1300 0 -1300 0 0
-1300z m2005 901 c108 -49 192 -216 225 -446 5 -38 10 -91 10 -117 l0 -48 -94
0 -93 0 -6 78 c-12 147 -49 212 -122 212 -52 0 -69 -13 -93 -67 -40 -93 -47
-171 -47 -498 0 -326 9 -424 46 -497 35 -68 92 -87 143 -47 41 32 58 76 70
174 l12 90 93 3 94 3 -6 -99 c-11 -169 -64 -339 -134 -431 -33 -43 -104 -88
-153 -96 -156 -26 -282 141 -334 445 -41 240 -42 671 0 905 42 240 127 401
235 444 39 16 111 12 154 -8z m-1370 -10 c3 -6 42 -265 86 -578 44 -312 83
-575 86 -583 3 -8 43 244 88 562 45 317 85 583 88 592 5 13 26 16 127 16 l120
0 0 -880 0 -880 -97 0 -96 0 7 518 c3 284 8 551 11 592 8 129 -9 34 -96 -553
l-84 -558 -65 3 -65 3 -87 570 c-47 314 -89 579 -92 590 -3 11 -3 -16 -1 -60
3 -44 8 -311 11 -592 l7 -513 -96 0 -97 0 0 880 0 880 119 0 c66 0 122 -4 126
-9z"/>
</g>
</svg>
